<?xml version="1.0" encoding="UTF-8" standalone="no"?>
<svg
   xmlns:dc="http://purl.org/dc/elements/1.1/"
   xmlns:cc="http://creativecommons.org/ns#"
   xmlns:rdf="http://www.w3.org/1999/02/22-rdf-syntax-ns#"
   xmlns:svg="http://www.w3.org/2000/svg"
   xmlns="http://www.w3.org/2000/svg"
   xmlns:sodipodi="http://sodipodi.sourceforge.net/DTD/sodipodi-0.dtd"
   xmlns:inkscape="http://www.inkscape.org/namespaces/inkscape"
   inkscape:version="1.0 (4035a4fb49, 2020-05-01)"
   sodipodi:docname="maus-logo.svg"
   xml:space="preserve"
   style="enable-background:new 0 0 197.654 197.654;"
   viewBox="0 0 197.654 197.654"
   y="0px"
   x="0px"
   id="Layer_1"
   version="1.1"><metadata
   id="metadata47"><rdf:RDF><cc:Work
       rdf:about=""><dc:format>image/svg+xml</dc:format><dc:type
         rdf:resource="http://purl.org/dc/dcmitype/StillImage" /><dc:title></dc:title></cc:Work></rdf:RDF></metadata><defs
   id="defs45">
	

		
	
			
			
		</defs><sodipodi:namedview
   inkscape:current-layer="Layer_1"
   inkscape:window-maximized="1"
   inkscape:window-y="-8"
   inkscape:window-x="-8"
   inkscape:cy="99.0397"
   inkscape:cx="48.951747"
   inkscape:zoom="2.150222"
   showgrid="false"
   id="namedview43"
   inkscape:window-height="1017"
   inkscape:window-width="1920"
   inkscape:pageshadow="2"
   inkscape:pageopacity="0"
   guidetolerance="10"
   gridtolerance="10"
   objecttolerance="10"
   borderopacity="1"
   bordercolor="#666666"
   pagecolor="#ffffff" />
<path
   id="path899"
   d="m 148.16836,106.61797 c 0.603,0 1.20188,0.0568 1.79688,0.17382 3.486,0.675 6.46462,3.27364 8.39062,7.30664 2.125,4.447 2.69256,9.99043 1.60156,15.60743 -0.326,1.682 -0.79739,3.33043 -1.40039,4.89843 l -1.1875,3.08789 2.75977,1.82618 c 19.023,12.573 27.53906,24.34659 27.53906,30.43359 0,17.45 -46.36233,19.46875 -81.23633,19.46875 -48.04,0 -75.2207,-1.18166 -75.2207,-25.47266 0,-22.19 10.04788,-48.63962 57.92188,-48.64062 11.574,0 24.93181,2.69506 38.63281,7.78906 l 3.98242,1.47852 1.35547,-4.02344 c 2.789,-8.291 9.03545,-13.93359 15.06445,-13.93359 z"
   style="fill:#f2f0f5;fill-opacity:1;stroke:none;stroke-width:12.3402;stroke-linecap:round;stroke-opacity:1" /><g
   transform="matrix(-1,0,0,1,197.65444,0)"
   style="fill:#669580;fill-opacity:1;stroke:none;stroke-opacity:1"
   id="g10">
	<g
   style="fill:#669580;fill-opacity:1;stroke:none;stroke-opacity:1"
   id="g8">
		<g
   style="fill:#669580;fill-opacity:1;stroke:none;stroke-opacity:1"
   id="g6">
			<path
   style="fill:#669580;fill-opacity:1;stroke:none;stroke-opacity:1"
   id="path2"
   d="m 38.807,147.588 c -6.811,0 -12.352,5.541 -12.352,12.352 0,6.811 5.541,12.352 12.352,12.352 6.811,0 12.352,-5.541 12.352,-12.352 0,-6.811 -5.54,-12.352 -12.352,-12.352 z m 0,16.469 c -2.27,0 -4.117,-1.845 -4.117,-4.117 0,-2.272 1.847,-4.117 4.117,-4.117 2.27,0 4.117,1.845 4.117,4.117 0,2.272 -1.847,4.117 -4.117,4.117 z" />
			<path
   style="fill:#669580;fill-opacity:1;stroke:none;stroke-opacity:1"
   id="path4"
   d="M 173.144,76.994 C 155.185,56.709 148.766,39.162 154.582,26.247 160.243,13.674 176.24,8.234 183.152,8.234 c 2.274,0 4.117,-1.842 4.117,-4.117 0,-2.275 -1.843,-4.117 -4.117,-4.117 -10.398,0 -29.054,7.265 -36.079,22.866 -5.052,11.218 -5.7,30.663 19.907,59.589 16.487,18.624 23.327,33.719 19.782,43.654 -3.29,9.218 -14.965,11.925 -17.011,12.335 -7.14,-16.349 -23.859,-31.37 -61.23,-31.37 -11.461,0 -24.435,2.396 -37.733,6.956 -5.14,-10.88 -15.028,-17.197 -24.67,-15.319 -6.112,1.186 -11.174,5.388 -14.252,11.837 -2.881,6.031 -3.681,13.393 -2.256,20.727 0.205,1.057 0.456,2.111 0.752,3.144 -17.975,12.416 -28.612,25.576 -28.612,35.532 0,24.346 43.002,27.703 89.471,27.703 44.782,0 83.456,0 83.456,-33.706 0,-5.262 -0.531,-11.406 -2.199,-17.673 4.753,-1.121 17.65,-5.21 22.018,-17.34 4.727,-13.124 -2.458,-30.598 -21.352,-51.941 z M 91.223,189.42 c -34.874,0 -81.236,-2.019 -81.236,-19.469 0,-6.087 8.516,-17.86 27.539,-30.433 l 2.76,-1.826 -1.188,-3.088 c -0.603,-1.568 -1.075,-3.216 -1.401,-4.898 -1.091,-5.617 -0.523,-11.162 1.602,-15.609 1.926,-4.033 4.905,-6.631 8.391,-7.306 0.595,-0.117 1.194,-0.173 1.797,-0.173 6.029,0 12.275,5.641 15.064,13.932 l 1.355,4.025 3.983,-1.48 c 13.701,-5.094 27.06,-7.788 38.634,-7.788 47.874,0.001 57.921,26.45 57.921,48.64 0,24.291 -27.181,25.473 -75.221,25.473 z" />
		</g>
	</g>
</g>
<g
   id="g12">
</g>
<g
   id="g14">
</g>
<g
   id="g16">
</g>
<g
   id="g18">
</g>
<g
   id="g20">
</g>
<g
   id="g22">
</g>
<g
   id="g24">
</g>
<g
   id="g26">
</g>
<g
   id="g28">
</g>
<g
   id="g30">
</g>
<g
   id="g32">
</g>
<g
   id="g34">
</g>
<g
   id="g36">
</g>
<g
   id="g38">
</g>
<g
   id="g40">
</g>
</svg>
